# xmcd
#
# Track frame offsets: 
#        150
#        13156
#        24586
#        35419
#        47888
#        58229
#        69874
#        81629
#        92354
#        104419
#        115027
#        125777
#        137389
#        149086
#        161886
#        172498
#        183297
#        193866
#        203585
#        212827
#        223959
#        235929
#        247552
#        256809
#        267081
#        277865
#        290134
#        302179
#        313433
#        323277
#        334226
#        343985
#
# Disc length: 4738 seconds
#
# Revision: 0
# Processed by: cddbd v1.5.2PL0 Copyright (c) Steve Scherf et al.
# Submitted via: ExactAudioCopyFreeDBPlugin 1.0
#
DISCID=f6128020
DTITLE=Otis Williams and the Charms - Ivory Tower [CD1]
DYEAR=1900
DGENRE=R&B
TTITLE0=Heaven Only Knows
TTITLE1=Loving Baby
TTITLE2=Happy Are We
TTITLE3=What Do You Know About That
TTITLE4=Bye Bye Baby
TTITLE5=Please Believe Me
TTITLE6=Fifty Five Seconds
TTITLE7=Quiet Please
TTITLE8=My Baby Dearest Darling
TTITLE9=Come to me Baby
TTITLE10=Who Knows
TTITLE11=Hearts of Stone
TTITLE12=Two Hearts
TTITLE13=The First Time We Met
TTITLE14=Mambo Sh-Mambo
TTITLE15=Crazy Crazy Love
TTITLE16=Bzoum, I Need Your Loving
TTITLE17=Ling Ting Tong
TTITLE18=Whadaya Want
TTITLE19=Ko Ko Mo
TTITLE20=When We Get Together
TTITLE21=Let the Happiness Happen
TTITLE22=It's You You You
TTITLE23=One Fine Day
TTITLE24=Miss the Love (That I've Been Dreaming Of)
TTITLE25=Tell Me Now
TTITLE26=Gum Drop
TTITLE27=Save me Save me
TTITLE28=That's Your Mistake
TTITLE29=Too Late I Learned
TTITLE30=Do Be You
TTITLE31=In Paradise
EXTD=
EXTT0=
EXTT1=
EXTT2=
EXTT3=
EXTT4=
EXTT5=
EXTT6=
EXTT7=
EXTT8=
EXTT9=
EXTT10=
EXTT11=
EXTT12=
EXTT13=
EXTT14=
EXTT15=
EXTT16=
EXTT17=
EXTT18=
EXTT19=
EXTT20=
EXTT21=
EXTT22=
EXTT23=
EXTT24=
EXTT25=
EXTT26=
EXTT27=
EXTT28=
EXTT29=
EXTT30=
EXTT31=
PLAYORDER=
